<svg xmlns="http://www.w3.org/2000/svg" width="1080" height="1920" viewBox="0 0 1080 1920">
<defs>
<linearGradient id="sky" x1="0" y1="0" x2="0" y2="1"><stop offset="0" stop-color="#0f0620"/><stop offset="0.5" stop-color="#3a1c5a"/><stop offset="1" stop-color="#7a4a9a"/></linearGradient>
<linearGradient id="seaGrad" x1="0" y1="0" x2="0" y2="1"><stop offset="0" stop-color="#000"/><stop offset="1" stop-color="#0a1420"/></linearGradient>
<linearGradient id="fieldGrad" x1="0" y1="0" x2="0" y2="1"><stop offset="0" stop-color="#000"/><stop offset="1" stop-color="#3a2a10"/></linearGradient>
<radialGradient id="glow" cx="50%" cy="50%" r="50%">
  <stop offset="0" stop-color="#c88fff" stop-opacity="0.55"/>
  <stop offset="100%" stop-color="#c88fff" stop-opacity="0"/>
</radialGradient>
<radialGradient id="vig" cx="50%" cy="45%" r="75%">
  <stop offset="55%" stop-color="#000" stop-opacity="0"/>
  <stop offset="100%" stop-color="#000" stop-opacity="0.6"/>
</radialGradient>
<linearGradient id="topbot" x1="0" y1="0" x2="0" y2="1">
  <stop offset="0" stop-color="#000" stop-opacity="0.35"/>
  <stop offset="0.28" stop-color="#000" stop-opacity="0"/>
  <stop offset="0.65" stop-color="#000" stop-opacity="0"/>
  <stop offset="1" stop-color="#000" stop-opacity="0.62"/>
</linearGradient>
</defs>
<rect width="1080" height="1920" fill="url(#sky)"/><circle cx="895" cy="582" r="1" fill="#fff" opacity="0.40"/><circle cx="1000" cy="699" r="2" fill="#fff" opacity="0.50"/><circle cx="25" cy="816" r="3" fill="#fff" opacity="0.60"/><circle cx="130" cy="933" r="1" fill="#fff" opacity="0.70"/><circle cx="234" cy="1050" r="2" fill="#fff" opacity="0.80"/><circle cx="339" cy="1167" r="3" fill="#fff" opacity="0.90"/><circle cx="444" cy="1284" r="1" fill="#fff" opacity="0.40"/><circle cx="549" cy="58" r="2" fill="#fff" opacity="0.50"/><circle cx="653" cy="175" r="3" fill="#fff" opacity="0.60"/><circle cx="758" cy="292" r="1" fill="#fff" opacity="0.70"/><circle cx="863" cy="409" r="2" fill="#fff" opacity="0.80"/><circle cx="968" cy="526" r="3" fill="#fff" opacity="0.90"/><circle cx="1072" cy="643" r="1" fill="#fff" opacity="0.40"/><circle cx="97" cy="760" r="2" fill="#fff" opacity="0.50"/><circle cx="202" cy="877" r="3" fill="#fff" opacity="0.60"/><circle cx="307" cy="995" r="1" fill="#fff" opacity="0.70"/><circle cx="411" cy="1112" r="2" fill="#fff" opacity="0.80"/><circle cx="516" cy="1229" r="3" fill="#fff" opacity="0.90"/><circle cx="621" cy="2" r="1" fill="#fff" opacity="0.40"/><circle cx="726" cy="119" r="2" fill="#fff" opacity="0.50"/><circle cx="831" cy="236" r="3" fill="#fff" opacity="0.60"/><circle cx="935" cy="353" r="1" fill="#fff" opacity="0.70"/><circle cx="1040" cy="470" r="2" fill="#fff" opacity="0.80"/><circle cx="65" cy="588" r="3" fill="#fff" opacity="0.90"/><circle cx="170" cy="705" r="1" fill="#fff" opacity="0.40"/><circle cx="274" cy="822" r="2" fill="#fff" opacity="0.50"/><circle cx="379" cy="939" r="3" fill="#fff" opacity="0.60"/><circle cx="484" cy="1056" r="1" fill="#fff" opacity="0.70"/><circle cx="589" cy="1173" r="2" fill="#fff" opacity="0.80"/><circle cx="693" cy="1290" r="3" fill="#fff" opacity="0.90"/><circle cx="798" cy="63" r="1" fill="#fff" opacity="0.40"/><circle cx="903" cy="180" r="2" fill="#fff" opacity="0.50"/><circle cx="1008" cy="298" r="3" fill="#fff" opacity="0.60"/><circle cx="32" cy="415" r="1" fill="#fff" opacity="0.70"/><circle cx="137" cy="532" r="2" fill="#fff" opacity="0.80"/><circle cx="242" cy="649" r="3" fill="#fff" opacity="0.90"/><circle cx="347" cy="766" r="1" fill="#fff" opacity="0.40"/><circle cx="451" cy="883" r="2" fill="#fff" opacity="0.50"/><circle cx="556" cy="1000" r="3" fill="#fff" opacity="0.60"/><circle cx="661" cy="1117" r="1" fill="#fff" opacity="0.70"/><circle cx="766" cy="1235" r="2" fill="#fff" opacity="0.80"/><circle cx="870" cy="8" r="3" fill="#fff" opacity="0.90"/><circle cx="975" cy="125" r="1" fill="#fff" opacity="0.40"/><circle cx="0" cy="242" r="2" fill="#fff" opacity="0.50"/><circle cx="105" cy="359" r="3" fill="#fff" opacity="0.60"/><circle cx="210" cy="476" r="1" fill="#fff" opacity="0.70"/><circle cx="314" cy="593" r="2" fill="#fff" opacity="0.80"/><circle cx="419" cy="710" r="3" fill="#fff" opacity="0.90"/><circle cx="524" cy="828" r="1" fill="#fff" opacity="0.40"/><circle cx="629" cy="945" r="2" fill="#fff" opacity="0.50"/><circle cx="733" cy="1062" r="3" fill="#fff" opacity="0.60"/><circle cx="838" cy="1179" r="1" fill="#fff" opacity="0.70"/><circle cx="943" cy="1296" r="2" fill="#fff" opacity="0.80"/><circle cx="1048" cy="69" r="3" fill="#fff" opacity="0.90"/><circle cx="72" cy="186" r="1" fill="#fff" opacity="0.40"/><circle cx="177" cy="303" r="2" fill="#fff" opacity="0.50"/><circle cx="282" cy="420" r="3" fill="#fff" opacity="0.60"/><circle cx="387" cy="538" r="1" fill="#fff" opacity="0.70"/><circle cx="491" cy="655" r="2" fill="#fff" opacity="0.80"/><circle cx="596" cy="772" r="3" fill="#fff" opacity="0.90"/><circle cx="460" cy="520" r="264" fill="url(#glow)"/><circle cx="460" cy="520" r="110" fill="#f0d0ff" opacity="0.92"/><polygon points="0,1920 0,1386 135,1502 270,1654 405,1644 540,1482 675,1372 810,1431 945,1536 1080,1523 1080,1920" fill="#2a1444"/><polygon points="0,1920 0,1852 135,1847 270,1644 405,1484 540,1562 675,1763 810,1827 945,1717 1080,1644 1080,1920" fill="#180a2c"/><rect width="1080" height="1920" fill="url(#vig)"/><rect width="1080" height="1920" fill="url(#topbot)"/>
</svg>