<svg xmlns="http://www.w3.org/2000/svg" width="1080" height="1920" viewBox="0 0 1080 1920">
<defs>
<linearGradient id="sky" x1="0" y1="0" x2="0" y2="1"><stop offset="0" stop-color="#3a2a5f"/><stop offset="0.45" stop-color="#c05a4a"/><stop offset="0.68" stop-color="#f0954a"/><stop offset="1" stop-color="#ffd07a"/></linearGradient>
<linearGradient id="seaGrad" x1="0" y1="0" x2="0" y2="1"><stop offset="0" stop-color="#000"/><stop offset="1" stop-color="#0a1420"/></linearGradient>
<linearGradient id="fieldGrad" x1="0" y1="0" x2="0" y2="1"><stop offset="0" stop-color="#b8863b"/><stop offset="1" stop-color="#3a2a10"/></linearGradient>
<radialGradient id="glow" cx="50%" cy="50%" r="50%">
  <stop offset="0" stop-color="#ffb050" stop-opacity="0.55"/>
  <stop offset="100%" stop-color="#ffb050" stop-opacity="0"/>
</radialGradient>
<radialGradient id="vig" cx="50%" cy="45%" r="75%">
  <stop offset="55%" stop-color="#000" stop-opacity="0"/>
  <stop offset="100%" stop-color="#000" stop-opacity="0.6"/>
</radialGradient>
<linearGradient id="topbot" x1="0" y1="0" x2="0" y2="1">
  <stop offset="0" stop-color="#000" stop-opacity="0.35"/>
  <stop offset="0.28" stop-color="#000" stop-opacity="0"/>
  <stop offset="0.65" stop-color="#000" stop-opacity="0"/>
  <stop offset="1" stop-color="#000" stop-opacity="0.62"/>
</linearGradient>
</defs>
<rect width="1080" height="1920" fill="url(#sky)"/><polygon points="540,700 2458,623 2460,700" fill="#ffb050" opacity="0.06"/><polygon points="540,700 2240,1593 2203,1660" fill="#ffb050" opacity="0.06"/><polygon points="540,700 1566,2323 1500,2363" fill="#ffb050" opacity="0.06"/><polygon points="540,700 617,2618 540,2620" fill="#ffb050" opacity="0.06"/><polygon points="540,700 -353,2400 -420,2363" fill="#ffb050" opacity="0.06"/><polygon points="540,700 -1083,1726 -1123,1660" fill="#ffb050" opacity="0.06"/><polygon points="540,700 -1378,777 -1380,700" fill="#ffb050" opacity="0.06"/><polygon points="540,700 -1160,-193 -1123,-260" fill="#ffb050" opacity="0.06"/><polygon points="540,700 -486,-923 -420,-963" fill="#ffb050" opacity="0.06"/><polygon points="540,700 463,-1218 540,-1220" fill="#ffb050" opacity="0.06"/><polygon points="540,700 1433,-1000 1500,-963" fill="#ffb050" opacity="0.06"/><polygon points="540,700 2163,-326 2203,-260" fill="#ffb050" opacity="0.06"/><circle cx="540" cy="700" r="384" fill="url(#glow)"/><circle cx="540" cy="700" r="160" fill="#fff0c0" opacity="0.92"/><rect y="1300" width="1080" height="620" fill="url(#fieldGrad)"/><rect x="0" y="1880" width="4" height="40" fill="#8a6428" opacity="0.4"/><rect x="137" y="1827" width="4" height="93" fill="#8a6428" opacity="0.4"/><rect x="274" y="1774" width="4" height="146" fill="#8a6428" opacity="0.4"/><rect x="411" y="1841" width="4" height="79" fill="#8a6428" opacity="0.4"/><rect x="548" y="1788" width="4" height="132" fill="#8a6428" opacity="0.4"/><rect x="685" y="1855" width="4" height="65" fill="#8a6428" opacity="0.4"/><rect x="822" y="1802" width="4" height="118" fill="#8a6428" opacity="0.4"/><rect x="959" y="1869" width="4" height="51" fill="#8a6428" opacity="0.4"/><rect x="16" y="1816" width="4" height="104" fill="#8a6428" opacity="0.4"/><rect x="153" y="1763" width="4" height="157" fill="#8a6428" opacity="0.4"/><rect x="290" y="1830" width="4" height="90" fill="#8a6428" opacity="0.4"/><rect x="427" y="1777" width="4" height="143" fill="#8a6428" opacity="0.4"/><rect x="564" y="1844" width="4" height="76" fill="#8a6428" opacity="0.4"/><rect x="701" y="1791" width="4" height="129" fill="#8a6428" opacity="0.4"/><rect x="838" y="1858" width="4" height="62" fill="#8a6428" opacity="0.4"/><rect x="975" y="1805" width="4" height="115" fill="#8a6428" opacity="0.4"/><rect x="32" y="1872" width="4" height="48" fill="#8a6428" opacity="0.4"/><rect x="169" y="1819" width="4" height="101" fill="#8a6428" opacity="0.4"/><rect x="306" y="1766" width="4" height="154" fill="#8a6428" opacity="0.4"/><rect x="443" y="1833" width="4" height="87" fill="#8a6428" opacity="0.4"/><rect x="580" y="1780" width="4" height="140" fill="#8a6428" opacity="0.4"/><rect x="717" y="1847" width="4" height="73" fill="#8a6428" opacity="0.4"/><rect x="854" y="1794" width="4" height="126" fill="#8a6428" opacity="0.4"/><rect x="991" y="1861" width="4" height="59" fill="#8a6428" opacity="0.4"/><rect x="48" y="1808" width="4" height="112" fill="#8a6428" opacity="0.4"/><rect x="185" y="1875" width="4" height="45" fill="#8a6428" opacity="0.4"/><rect x="322" y="1822" width="4" height="98" fill="#8a6428" opacity="0.4"/><rect x="459" y="1769" width="4" height="151" fill="#8a6428" opacity="0.4"/><rect x="596" y="1836" width="4" height="84" fill="#8a6428" opacity="0.4"/><rect x="733" y="1783" width="4" height="137" fill="#8a6428" opacity="0.4"/><rect x="870" y="1850" width="4" height="70" fill="#8a6428" opacity="0.4"/><rect x="1007" y="1797" width="4" height="123" fill="#8a6428" opacity="0.4"/><rect x="64" y="1864" width="4" height="56" fill="#8a6428" opacity="0.4"/><rect x="201" y="1811" width="4" height="109" fill="#8a6428" opacity="0.4"/><rect x="338" y="1878" width="4" height="42" fill="#8a6428" opacity="0.4"/><rect x="475" y="1825" width="4" height="95" fill="#8a6428" opacity="0.4"/><rect x="612" y="1772" width="4" height="148" fill="#8a6428" opacity="0.4"/><rect x="749" y="1839" width="4" height="81" fill="#8a6428" opacity="0.4"/><rect x="886" y="1786" width="4" height="134" fill="#8a6428" opacity="0.4"/><rect x="1023" y="1853" width="4" height="67" fill="#8a6428" opacity="0.4"/><rect width="1080" height="1920" fill="url(#vig)"/><rect width="1080" height="1920" fill="url(#topbot)"/>
</svg>