<svg xmlns="http://www.w3.org/2000/svg" width="1080" height="1920" viewBox="0 0 1080 1920">
<defs>
<linearGradient id="sky" x1="0" y1="0" x2="0" y2="1"><stop offset="0" stop-color="#040814"/><stop offset="0.6" stop-color="#0e1a3f"/><stop offset="1" stop-color="#1a2a55"/></linearGradient>
<linearGradient id="seaGrad" x1="0" y1="0" x2="0" y2="1"><stop offset="0" stop-color="#000"/><stop offset="1" stop-color="#0a1420"/></linearGradient>
<linearGradient id="fieldGrad" x1="0" y1="0" x2="0" y2="1"><stop offset="0" stop-color="#000"/><stop offset="1" stop-color="#3a2a10"/></linearGradient>
<radialGradient id="glow" cx="50%" cy="50%" r="50%">
  <stop offset="0" stop-color="#9fb8ff" stop-opacity="0.55"/>
  <stop offset="100%" stop-color="#9fb8ff" stop-opacity="0"/>
</radialGradient>
<radialGradient id="vig" cx="50%" cy="45%" r="75%">
  <stop offset="55%" stop-color="#000" stop-opacity="0"/>
  <stop offset="100%" stop-color="#000" stop-opacity="0.6"/>
</radialGradient>
<linearGradient id="topbot" x1="0" y1="0" x2="0" y2="1">
  <stop offset="0" stop-color="#000" stop-opacity="0.35"/>
  <stop offset="0.28" stop-color="#000" stop-opacity="0"/>
  <stop offset="0.65" stop-color="#000" stop-opacity="0"/>
  <stop offset="1" stop-color="#000" stop-opacity="0.62"/>
</linearGradient>
</defs>
<rect width="1080" height="1920" fill="url(#sky)"/><circle cx="610" cy="1066" r="1" fill="#fff" opacity="0.40"/><circle cx="715" cy="1183" r="2" fill="#fff" opacity="0.50"/><circle cx="820" cy="1300" r="3" fill="#fff" opacity="0.60"/><circle cx="924" cy="73" r="1" fill="#fff" opacity="0.70"/><circle cx="1029" cy="190" r="2" fill="#fff" opacity="0.80"/><circle cx="54" cy="307" r="3" fill="#fff" opacity="0.90"/><circle cx="159" cy="424" r="1" fill="#fff" opacity="0.40"/><circle cx="264" cy="541" r="2" fill="#fff" opacity="0.50"/><circle cx="368" cy="659" r="3" fill="#fff" opacity="0.60"/><circle cx="473" cy="776" r="1" fill="#fff" opacity="0.70"/><circle cx="578" cy="893" r="2" fill="#fff" opacity="0.80"/><circle cx="683" cy="1010" r="3" fill="#fff" opacity="0.90"/><circle cx="787" cy="1127" r="1" fill="#fff" opacity="0.40"/><circle cx="892" cy="1244" r="2" fill="#fff" opacity="0.50"/><circle cx="997" cy="17" r="3" fill="#fff" opacity="0.60"/><circle cx="22" cy="134" r="1" fill="#fff" opacity="0.70"/><circle cx="126" cy="252" r="2" fill="#fff" opacity="0.80"/><circle cx="231" cy="369" r="3" fill="#fff" opacity="0.90"/><circle cx="336" cy="486" r="1" fill="#fff" opacity="0.40"/><circle cx="441" cy="603" r="2" fill="#fff" opacity="0.50"/><circle cx="545" cy="720" r="3" fill="#fff" opacity="0.60"/><circle cx="650" cy="837" r="1" fill="#fff" opacity="0.70"/><circle cx="755" cy="954" r="2" fill="#fff" opacity="0.80"/><circle cx="860" cy="1071" r="3" fill="#fff" opacity="0.90"/><circle cx="964" cy="1188" r="1" fill="#fff" opacity="0.40"/><circle cx="1069" cy="1306" r="2" fill="#fff" opacity="0.50"/><circle cx="94" cy="79" r="3" fill="#fff" opacity="0.60"/><circle cx="199" cy="196" r="1" fill="#fff" opacity="0.70"/><circle cx="303" cy="313" r="2" fill="#fff" opacity="0.80"/><circle cx="408" cy="430" r="3" fill="#fff" opacity="0.90"/><circle cx="513" cy="547" r="1" fill="#fff" opacity="0.40"/><circle cx="618" cy="664" r="2" fill="#fff" opacity="0.50"/><circle cx="723" cy="781" r="3" fill="#fff" opacity="0.60"/><circle cx="827" cy="899" r="1" fill="#fff" opacity="0.70"/><circle cx="932" cy="1016" r="2" fill="#fff" opacity="0.80"/><circle cx="1037" cy="1133" r="3" fill="#fff" opacity="0.90"/><circle cx="62" cy="1250" r="1" fill="#fff" opacity="0.40"/><circle cx="166" cy="23" r="2" fill="#fff" opacity="0.50"/><circle cx="271" cy="140" r="3" fill="#fff" opacity="0.60"/><circle cx="376" cy="257" r="1" fill="#fff" opacity="0.70"/><circle cx="481" cy="374" r="2" fill="#fff" opacity="0.80"/><circle cx="585" cy="492" r="3" fill="#fff" opacity="0.90"/><circle cx="690" cy="609" r="1" fill="#fff" opacity="0.40"/><circle cx="795" cy="726" r="2" fill="#fff" opacity="0.50"/><circle cx="900" cy="843" r="3" fill="#fff" opacity="0.60"/><circle cx="1004" cy="960" r="1" fill="#fff" opacity="0.70"/><circle cx="29" cy="1077" r="2" fill="#fff" opacity="0.80"/><circle cx="134" cy="1194" r="3" fill="#fff" opacity="0.90"/><circle cx="239" cy="1311" r="1" fill="#fff" opacity="0.40"/><circle cx="343" cy="84" r="2" fill="#fff" opacity="0.50"/><circle cx="448" cy="202" r="3" fill="#fff" opacity="0.60"/><circle cx="553" cy="319" r="1" fill="#fff" opacity="0.70"/><circle cx="658" cy="436" r="2" fill="#fff" opacity="0.80"/><circle cx="762" cy="553" r="3" fill="#fff" opacity="0.90"/><circle cx="867" cy="670" r="1" fill="#fff" opacity="0.40"/><circle cx="972" cy="787" r="2" fill="#fff" opacity="0.50"/><circle cx="1077" cy="904" r="3" fill="#fff" opacity="0.60"/><circle cx="102" cy="1021" r="1" fill="#fff" opacity="0.70"/><circle cx="206" cy="1139" r="2" fill="#fff" opacity="0.80"/><circle cx="311" cy="1256" r="3" fill="#fff" opacity="0.90"/><circle cx="416" cy="29" r="1" fill="#fff" opacity="0.40"/><circle cx="521" cy="146" r="2" fill="#fff" opacity="0.50"/><circle cx="625" cy="263" r="3" fill="#fff" opacity="0.60"/><circle cx="730" cy="380" r="1" fill="#fff" opacity="0.70"/><circle cx="835" cy="497" r="2" fill="#fff" opacity="0.80"/><circle cx="940" cy="614" r="3" fill="#fff" opacity="0.90"/><circle cx="1044" cy="732" r="1" fill="#fff" opacity="0.40"/><circle cx="69" cy="849" r="2" fill="#fff" opacity="0.50"/><circle cx="174" cy="966" r="3" fill="#fff" opacity="0.60"/><circle cx="279" cy="1083" r="1" fill="#fff" opacity="0.70"/><circle cx="383" cy="1200" r="2" fill="#fff" opacity="0.80"/><circle cx="488" cy="1317" r="3" fill="#fff" opacity="0.90"/><circle cx="593" cy="90" r="1" fill="#fff" opacity="0.40"/><circle cx="698" cy="207" r="2" fill="#fff" opacity="0.50"/><circle cx="802" cy="324" r="3" fill="#fff" opacity="0.60"/><circle cx="907" cy="442" r="1" fill="#fff" opacity="0.70"/><circle cx="1012" cy="559" r="2" fill="#fff" opacity="0.80"/><circle cx="37" cy="676" r="3" fill="#fff" opacity="0.90"/><circle cx="141" cy="793" r="1" fill="#fff" opacity="0.40"/><circle cx="246" cy="910" r="2" fill="#fff" opacity="0.50"/><circle cx="351" cy="1027" r="3" fill="#fff" opacity="0.60"/><circle cx="456" cy="1144" r="1" fill="#fff" opacity="0.70"/><circle cx="561" cy="1261" r="2" fill="#fff" opacity="0.80"/><circle cx="665" cy="35" r="3" fill="#fff" opacity="0.90"/><circle cx="770" cy="152" r="1" fill="#fff" opacity="0.40"/><circle cx="875" cy="269" r="2" fill="#fff" opacity="0.50"/><circle cx="980" cy="386" r="3" fill="#fff" opacity="0.60"/><circle cx="4" cy="503" r="1" fill="#fff" opacity="0.70"/><circle cx="109" cy="620" r="2" fill="#fff" opacity="0.80"/><circle cx="214" cy="737" r="3" fill="#fff" opacity="0.90"/><circle cx="720" cy="420" r="216" fill="url(#glow)"/><circle cx="720" cy="420" r="90" fill="#f0f4ff" opacity="0.92"/><polygon points="0,1920 0,1374 135,1456 270,1624 405,1667 540,1530 675,1392 810,1413 945,1520 1080,1533 1080,1920" fill="#0a1230"/><polygon points="0,1920 0,1797 135,1868 270,1712 405,1501 540,1493 675,1676 810,1796 945,1726 1080,1624 1080,1920" fill="#050a1c"/><rect width="1080" height="1920" fill="url(#vig)"/><rect width="1080" height="1920" fill="url(#topbot)"/>
</svg>